<svg width="3840" height="2112" viewBox="0 0 3840 2112" fill="none" xmlns="http://www.w3.org/2000/svg">
<path d="M3572.1 544.639C3584.8 549.175 3597.52 553.613 3610.31 557.875C3611.04 558.12 3611.78 558.365 3612.53 558.618C3632.69 565.355 3650.58 569.632 3670.56 559.75C3684.02 552.357 3689.88 540.498 3694.24 526.152C3695.21 522.78 3696.11 519.394 3697 516C3697.66 513.69 3698.32 511.38 3699 509C3710.55 509 3722.1 509 3734 509C3737.87 542.655 3741.15 576.365 3744.46 610.078C3744.96 615.104 3745.45 620.129 3745.94 625.155C3747.58 641.82 3749.22 658.484 3750.85 675.15C3750.99 676.486 3750.99 676.486 3751.12 677.849C3751.25 679.187 3751.25 679.187 3751.38 680.552C3752.81 695.079 3754.24 709.606 3755.67 724.133C3757.15 739.123 3758.62 754.114 3760.09 769.105C3760.91 777.493 3761.74 785.88 3762.57 794.267C3763.27 801.385 3763.97 808.503 3764.66 815.622C3765.02 819.247 3765.37 822.872 3765.73 826.496C3766.12 830.431 3766.51 834.367 3766.89 838.303C3767 839.437 3767.12 840.571 3767.23 841.739C3767.34 842.805 3767.44 843.87 3767.54 844.968C3767.63 845.874 3767.72 846.78 3767.81 847.713C3768.08 852.468 3768 857.237 3768 862C3755.46 862 3742.92 862 3730 862C3728.6 856.803 3727.2 851.605 3725.75 846.25C3718 818.144 3709.13 790.553 3697 764C3696.53 762.953 3696.05 761.906 3695.56 760.828C3676.57 719.162 3649.7 678.199 3613 650C3612.02 649.25 3612.02 649.25 3611.03 648.485C3562.16 611.212 3502.8 579.73 3440 578C3438.95 577.969 3438.95 577.969 3437.87 577.938C3388.43 576.695 3342.86 591.861 3306.31 625.767C3280.8 650.11 3268.66 684.564 3267.78 719.336C3267.08 758.146 3274.11 796.945 3299 828C3299.51 828.634 3300.01 829.268 3300.54 829.921C3310.64 842.511 3321.3 854.367 3332.69 865.812C3333.39 866.518 3334.09 867.224 3334.81 867.951C3339.38 872.503 3344.09 876.823 3349 881C3349.63 881.533 3350.25 882.067 3350.9 882.616C3362.26 892.207 3374.03 901.192 3386 910C3387.15 910.849 3387.15 910.849 3388.32 911.715C3408.2 926.417 3429.12 939.167 3450.41 951.701C3455.62 954.773 3460.82 957.876 3466 961C3471.77 964.473 3477.55 967.924 3483.34 971.355C3484.33 971.939 3484.33 971.939 3485.33 972.534C3486 972.93 3486.67 973.326 3487.36 973.735C3500.13 981.3 3512.87 988.916 3525.54 996.644C3531.6 1000.34 3537.68 1004.01 3543.78 1007.64C3556.69 1015.32 3569.52 1023.03 3581.89 1031.55C3584.16 1033.11 3586.43 1034.65 3588.71 1036.2C3604.96 1047.24 3620.95 1058.59 3636.72 1070.31C3638.88 1071.91 3641.04 1073.5 3643.2 1075.1C3652.09 1081.69 3660.72 1088.57 3669.28 1095.6C3671.52 1097.42 3673.79 1099.21 3676.06 1101C3687.13 1109.83 3697.64 1119.36 3708 1129C3708.61 1129.57 3709.23 1130.14 3709.86 1130.73C3711.85 1132.56 3713.83 1134.41 3715.81 1136.25C3716.42 1136.82 3717.03 1137.38 3717.66 1137.97C3723.08 1143.02 3728.51 1148.1 3733.31 1153.75C3735.23 1155.99 3737.17 1158.18 3739.21 1160.32C3751.83 1173.66 3761.89 1189.11 3771 1205C3771.64 1206.11 3771.64 1206.11 3772.28 1207.24C3795.74 1248.61 3806.22 1295.7 3806.25 1343C3806.25 1344.24 3806.25 1344.24 3806.25 1345.51C3806.17 1410.55 3786.37 1471.85 3746 1523C3745.57 1523.55 3745.13 1524.1 3744.69 1524.67C3737.71 1533.45 3729.83 1541.37 3721.94 1549.31C3721.43 1549.82 3720.92 1550.34 3720.4 1550.86C3714.34 1556.98 3708.15 1562.69 3701.41 1568.07C3699.45 1569.64 3697.53 1571.24 3695.64 1572.9C3634.1 1626.72 3550.74 1645.84 3471 1648C3470.26 1648.02 3469.51 1648.05 3468.75 1648.07C3437.71 1648.97 3406.29 1644.87 3375.94 1638.75C3374.68 1638.5 3373.41 1638.25 3372.11 1637.99C3344.47 1632.19 3317.82 1623.13 3291.12 1614.06C3284.44 1611.79 3277.76 1609.53 3271.07 1607.29C3270.26 1607.01 3269.45 1606.74 3268.62 1606.46C3257.27 1602.66 3245.87 1599.07 3234.37 1595.75C3233.71 1595.56 3233.06 1595.37 3232.38 1595.17C3216.9 1590.72 3203.15 1588.61 3188.12 1596.25C3175.34 1604.08 3168.48 1621 3165 1635C3164.34 1639.29 3163.68 1643.58 3163 1648C3150.46 1648 3137.92 1648 3125 1648C3123.77 1641.23 3122.67 1634.8 3122 1628C3120.81 1628.02 3119.63 1628.04 3118.41 1628.06C3090.19 1628.51 3061.98 1628.86 3033.77 1629.07C3030.29 1629.1 3026.81 1629.13 3023.33 1629.15C3022.64 1629.16 3021.95 1629.16 3021.23 1629.17C3010.04 1629.26 2998.86 1629.43 2987.67 1629.62C2976.18 1629.82 2964.69 1629.93 2953.19 1629.98C2946.74 1630 2940.29 1630.07 2933.84 1630.22C2891.38 1631.19 2891.38 1631.19 2882.37 1623.4C2878.64 1619.14 2876.13 1614.67 2874.03 1609.43C2872.61 1606.08 2870.69 1603.69 2868.36 1600.92C2861.99 1592.57 2855.64 1584.21 2849.36 1575.8C2844.22 1568.94 2839 1562.14 2833.79 1555.33C2825.82 1544.92 2817.85 1534.5 2810 1524C2802.06 1513.39 2794.01 1502.87 2785.97 1492.34C2778.01 1481.92 2770.09 1471.47 2762.23 1460.97C2757.21 1454.27 2752.13 1447.62 2747 1441C2741.5 1433.89 2736.05 1426.75 2730.67 1419.55C2727.2 1414.93 2723.69 1410.34 2720.19 1405.75C2715.43 1399.52 2710.69 1393.28 2706 1387C2698.06 1376.39 2690.01 1365.87 2681.97 1355.34C2674 1344.91 2666.08 1334.46 2658.22 1323.95C2654.09 1318.44 2649.92 1312.96 2645.7 1307.51C2636.1 1295.07 2626.63 1282.54 2617.22 1269.96C2613.09 1264.44 2608.92 1258.96 2604.7 1253.51C2595.1 1241.07 2585.63 1228.54 2576.22 1215.96C2572.09 1210.45 2567.92 1204.97 2563.71 1199.52C2554.77 1187.93 2545.92 1176.26 2537.15 1164.53C2534.19 1160.58 2531.2 1156.65 2528.19 1152.75C2523.11 1146.18 2518.14 1139.54 2513.18 1132.89C2512.56 1132.07 2511.95 1131.25 2511.32 1130.41C2510.78 1129.68 2510.23 1128.95 2509.67 1128.2C2509.12 1127.47 2508.57 1126.75 2508 1126C2507.49 1125.14 2506.97 1124.27 2506.44 1123.38C2504.1 1120.61 2504.1 1120.61 2500.1 1120.51C2498.5 1120.55 2496.89 1120.62 2495.28 1120.71C2494.41 1120.74 2493.53 1120.76 2492.62 1120.79C2489.72 1120.89 2486.82 1121.03 2483.92 1121.17C2481.91 1121.24 2479.9 1121.32 2477.89 1121.39C2472.59 1121.59 2467.3 1121.81 2462 1122.05C2456.6 1122.28 2451.2 1122.48 2445.8 1122.69C2435.2 1123.1 2424.6 1123.54 2414 1124C2414.08 1167.91 2414.17 1211.82 2414.28 1255.72C2414.29 1260.92 2414.31 1266.11 2414.32 1271.31C2414.32 1272.86 2414.32 1272.86 2414.32 1274.44C2414.36 1291.14 2414.4 1307.84 2414.43 1324.54C2414.46 1341.7 2414.5 1358.86 2414.54 1376.02C2414.57 1386.6 2414.59 1397.17 2414.61 1407.74C2414.62 1415.01 2414.64 1422.28 2414.66 1429.55C2414.67 1433.73 2414.68 1437.91 2414.68 1442.09C2413.47 1506.19 2413.47 1506.19 2440.64 1561.8C2468.66 1588 2515.86 1591.86 2552.14 1594.35C2553.15 1594.43 2554.17 1594.5 2555.21 1594.57C2556.56 1594.66 2556.56 1594.66 2557.94 1594.75C2560 1595 2560 1595 2561 1596C2561 1606.56 2561 1617.12 2561 1628C2411.84 1628 2262.68 1628 2109 1628C2109 1596 2109 1596 2110 1595C2112.4 1594.63 2114.79 1594.31 2117.21 1594.02C2118.75 1593.83 2120.28 1593.63 2121.82 1593.44C2122.63 1593.34 2123.45 1593.24 2124.29 1593.13C2171.8 1587.24 2171.8 1587.24 2215 1568C2215.83 1567.46 2216.66 1566.92 2217.52 1566.36C2236.16 1553.12 2240.59 1526.27 2244.19 1505.12C2245.97 1494.13 2247.19 1483.11 2248 1472C2248.12 1470.44 2248.12 1470.44 2248.25 1468.84C2249.25 1454.7 2249.15 1440.55 2249.14 1426.39C2249.14 1422.48 2249.15 1418.58 2249.15 1414.68C2249.16 1406.96 2249.16 1399.23 2249.16 1391.51C2249.16 1382.26 2249.17 1373 2249.17 1363.74C2249.19 1341.37 2249.2 1319.01 2249.2 1296.64C2249.2 1286.05 2249.21 1275.46 2249.21 1264.86C2249.22 1228.57 2249.23 1192.27 2249.24 1155.98C2249.24 1153.7 2249.24 1151.43 2249.24 1149.15C2249.24 1146.87 2249.24 1144.59 2249.24 1142.31C2249.24 1137.73 2249.24 1133.15 2249.24 1128.58C2249.24 1127.44 2249.24 1126.31 2249.24 1125.14C2249.24 1088.37 2249.26 1051.59 2249.28 1014.82C2249.31 975.89 2249.32 936.963 2249.32 898.036C2249.32 893.757 2249.32 889.478 2249.32 885.198C2249.32 884.145 2249.32 883.091 2249.32 882.006C2249.32 865.104 2249.34 848.202 2249.35 831.3C2249.36 814.289 2249.37 797.278 2249.36 780.267C2249.36 770.182 2249.36 760.097 2249.38 750.012C2249.39 743.251 2249.38 736.49 2249.37 729.728C2249.37 725.892 2249.37 722.056 2249.38 718.22C2249.61 655.002 2249.61 655.002 2222 600C2221.47 599.377 2220.94 598.755 2220.39 598.113C2195.57 570.839 2143.3 568.339 2109 565C2109 555.1 2109 545.2 2109 535C2155.07 534.966 2201.14 534.934 2247.21 534.915C2248.23 534.915 2248.23 534.915 2249.28 534.914C2264.15 534.908 2279.02 534.903 2293.9 534.898C2301.19 534.895 2308.49 534.893 2315.78 534.89C2316.87 534.89 2316.87 534.89 2317.98 534.889C2341.43 534.881 2364.87 534.866 2388.31 534.847C2412.45 534.828 2436.58 534.816 2460.71 534.812C2464.14 534.812 2467.56 534.811 2470.98 534.81C2471.66 534.81 2472.33 534.81 2473.02 534.81C2484.44 534.807 2495.86 534.797 2507.28 534.784C2517.49 534.774 2527.7 534.77 2537.91 534.773C2543.78 534.774 2549.65 534.772 2555.51 534.762C2589.53 534.702 2623.52 535.179 2657.38 538.812C2658.18 538.896 2658.99 538.98 2659.82 539.066C2740.17 547.434 2828.31 569.255 2888.51 626.629C2890.62 628.636 2892.77 630.514 2895 632.375C2910.23 645.693 2922.66 662.7 2933 680C2933.39 680.65 2933.79 681.299 2934.19 681.968C2945.2 700.365 2953.3 720.349 2959 741C2959.22 741.788 2959.44 742.576 2959.67 743.388C2966.74 769.286 2969.23 796.161 2969.19 822.938C2969.19 824.079 2969.19 824.079 2969.19 825.243C2969.06 883.098 2955.48 942.804 2916 987C2915.56 987.499 2915.12 987.997 2914.67 988.511C2902.39 1002.39 2888.88 1014 2874 1025C2873.41 1025.45 2872.81 1025.89 2872.2 1026.35C2818.31 1066.79 2750.26 1088.9 2684.49 1100.34C2681.16 1100.8 2681.16 1100.8 2679 1102C2679.79 1102.96 2680.58 1103.92 2681.39 1104.9C2687.19 1111.99 2692.91 1119.13 2698.44 1126.44C2703.39 1132.98 2708.52 1139.32 2713.77 1145.62C2718.37 1151.18 2722.76 1156.87 2727.11 1162.62C2730.95 1167.69 2734.93 1172.62 2739 1177.5C2744.21 1183.75 2749.2 1190.13 2754.11 1196.62C2757.95 1201.69 2761.93 1206.62 2766 1211.5C2771.21 1217.75 2776.2 1224.13 2781.11 1230.62C2784.95 1235.69 2788.93 1240.62 2793 1245.5C2798.21 1251.75 2803.2 1258.13 2808.11 1264.62C2811.95 1269.69 2815.93 1274.62 2820 1279.5C2825.21 1285.75 2830.2 1292.13 2835.11 1298.62C2838.95 1303.69 2842.93 1308.62 2847 1313.5C2852.21 1319.75 2857.2 1326.13 2862.11 1332.62C2865.95 1337.69 2869.93 1342.62 2874 1347.5C2879.21 1353.75 2884.2 1360.13 2889.11 1366.62C2892.95 1371.69 2896.93 1376.62 2901 1381.5C2906.21 1387.75 2911.2 1394.13 2916.11 1400.62C2919.95 1405.69 2923.93 1410.62 2928 1415.5C2933.21 1421.75 2938.2 1428.13 2943.11 1434.62C2946.95 1439.69 2950.93 1444.62 2955 1449.5C2960.21 1455.75 2965.2 1462.13 2970.11 1468.62C2974.51 1474.42 2979.11 1480.03 2983.76 1485.62C2987.87 1490.57 2991.81 1495.62 2995.69 1500.75C3001.22 1508.06 3006.98 1515.1 3013 1522C3013.77 1522.88 3014.54 1523.76 3015.33 1524.67C3023.89 1534.33 3032.92 1542.96 3043 1551C3043.84 1551.71 3044.68 1552.41 3045.54 1553.14C3065.12 1569.61 3085.64 1581.1 3110.27 1588.09C3111.53 1588.45 3112.79 1588.81 3114.09 1589.18C3115.05 1589.45 3116.01 1589.72 3117 1590C3116.79 1588.5 3116.79 1588.5 3116.57 1586.97C3112.17 1555.72 3107.93 1524.44 3103.73 1493.16C3103.19 1489.15 3102.65 1485.13 3102.11 1481.12C3100.6 1469.93 3099.1 1458.74 3097.6 1447.56C3097.5 1446.85 3097.41 1446.14 3097.31 1445.42C3097.17 1444.36 3097.17 1444.36 3097.02 1443.28C3096.83 1441.85 3096.64 1440.41 3096.45 1438.98C3096.35 1438.27 3096.26 1437.56 3096.16 1436.83C3094.6 1425.22 3093.04 1413.62 3091.48 1402.01C3089.86 1390.01 3088.24 1378 3086.63 1366C3085.73 1359.29 3084.83 1352.58 3083.93 1345.88C3083.08 1339.61 3082.24 1333.34 3081.4 1327.07C3081.09 1324.77 3080.78 1322.47 3080.47 1320.17C3080.05 1317.04 3079.63 1313.9 3079.21 1310.77C3079.03 1309.41 3079.03 1309.41 3078.84 1308.01C3078.72 1307.17 3078.61 1306.33 3078.5 1305.46C3078.4 1304.74 3078.3 1304.02 3078.2 1303.27C3077.96 1300.53 3078 1297.76 3078 1295C3090.54 1295 3103.08 1295 3116 1295C3121.59 1308.41 3121.59 1308.41 3123.47 1313.6C3129.56 1330.13 3136.32 1346.14 3144 1362C3144.37 1362.76 3144.73 1363.52 3145.11 1364.3C3146.99 1368.18 3148.92 1372.02 3150.89 1375.85C3151.7 1377.42 3152.51 1379 3153.31 1380.58C3170.55 1414.48 3191.23 1450.77 3217.62 1478.48C3219.57 1480.55 3221.44 1482.65 3223.3 1484.8C3226.96 1489.01 3230.81 1493 3234.75 1496.94C3235.45 1497.64 3236.15 1498.34 3236.87 1499.06C3241.5 1503.63 3246.21 1507.87 3251.33 1511.88C3253.74 1513.8 3256.06 1515.79 3258.37 1517.82C3315.78 1567.89 3394.49 1589.07 3469.55 1584.8C3517.23 1581.03 3557.11 1561.94 3591.57 1529.35C3592.79 1528.2 3594.02 1527.06 3595.25 1525.91C3625.92 1496.61 3640.07 1451.82 3641.23 1410.38C3641.62 1392.8 3641.57 1375.29 3638 1358C3637.83 1357.16 3637.66 1356.33 3637.48 1355.46C3628.79 1314.66 3607.06 1281.98 3577.94 1252.69C3577.03 1251.77 3576.12 1250.85 3575.18 1249.9C3569.09 1243.84 3562.72 1238.35 3556 1233C3554.7 1231.93 3553.39 1230.85 3552.09 1229.77C3522.01 1204.95 3489.08 1183.44 3456.25 1162.44C3453.61 1160.75 3450.97 1159.05 3448.34 1157.35C3436.41 1149.67 3424.41 1142.13 3412.32 1134.72C3405.22 1130.37 3398.15 1125.97 3391.12 1121.51C3384.76 1117.48 3378.38 1113.48 3372 1109.5C3364.82 1105.02 3357.65 1100.53 3350.5 1096C3343.45 1091.54 3336.39 1087.11 3329.31 1082.69C3328.31 1082.06 3327.31 1081.44 3326.28 1080.79C3321.04 1077.52 3315.8 1074.25 3310.56 1070.99C3282.83 1053.73 3256 1035.08 3231 1014C3229.97 1013.15 3228.94 1012.31 3227.9 1011.46C3214.63 1000.47 3201.74 988.338 3191.15 974.707C3188.99 971.988 3186.73 969.408 3184.42 966.817C3173.21 954.194 3163.56 940.539 3155 926C3154.43 925.089 3153.86 924.177 3153.28 923.238C3130.6 886.195 3121.52 842.141 3121.69 799.188C3121.69 798.204 3121.69 797.221 3121.69 796.208C3121.95 723.628 3145.17 655.348 3194.64 601.574C3196.74 599.287 3198.78 596.97 3200.81 594.625C3203.44 591.617 3206.05 588.696 3209 586C3209.66 586 3210.32 586 3211 586C3211 585.34 3211 584.68 3211 584C3213.42 581.418 3216.28 579.255 3219 577C3219.56 576.526 3220.13 576.051 3220.71 575.562C3295.55 512.656 3399.12 496.235 3572.1 544.639ZM2425.75 611.688C2413.41 624.936 2413.54 643.844 2413.64 660.951C2413.64 662.694 2413.64 664.437 2413.63 666.18C2413.62 670.919 2413.64 675.658 2413.65 680.397C2413.66 685.526 2413.66 690.655 2413.66 695.784C2413.66 704.654 2413.67 713.524 2413.68 722.395C2413.71 735.219 2413.71 748.043 2413.72 760.867C2413.73 781.678 2413.75 802.488 2413.77 823.299C2413.8 843.505 2413.82 863.711 2413.84 883.918C2413.84 885.165 2413.84 886.412 2413.84 887.697C2413.84 893.954 2413.85 900.21 2413.85 906.467C2413.88 958.311 2413.93 1010.16 2414 1062C2417.75 1061.85 2421.5 1061.7 2425.26 1061.55C2426.83 1061.49 2426.82 1061.49 2428.42 1061.43C2437.6 1061.05 2446.75 1060.47 2455.9 1059.74C2456.92 1059.66 2457.93 1059.58 2458.97 1059.5C2460.01 1059.42 2461.05 1059.34 2462.12 1059.25C2463.21 1059.16 2464.3 1059.08 2465.42 1058.99C2609.21 1049.03 2609.21 1049.03 2732 981C2732.53 980.505 2733.05 980.011 2733.6 979.501C2770.28 944.891 2789.07 894.817 2792 845C2792.06 843.998 2792.12 842.996 2792.18 841.964C2795.4 784.721 2786.9 721.604 2747.56 677.006C2747.14 676.531 2746.72 676.056 2746.28 675.566C2744 673 2744 673 2742.32 670.652C2741.88 670.107 2741.45 669.562 2741 669C2740.34 669 2739.68 669 2739 669C2738.6 668.041 2738.6 668.041 2738.19 667.062C2737.11 664.669 2737.11 664.669 2734 664C2733.67 663.01 2733.34 662.02 2733 661C2729.54 657.763 2725.74 654.917 2722 652C2721.05 651.25 2720.11 650.5 2719.13 649.727C2711.45 643.791 2703.42 638.781 2695 634C2694.37 633.634 2693.73 633.268 2693.08 632.891C2644.64 605.163 2470.87 570.237 2425.75 611.688Z" fill="#0746A3"/>
<path d="M930 482C931.214 482.234 932.428 482.468 933.679 482.708C938.26 483.61 942.817 484.613 947.375 485.625C948.24 485.816 949.106 486.007 949.997 486.204C993.726 495.896 1037.09 507.167 1080 520C1080.94 520.281 1081.88 520.561 1082.85 520.85C1138.01 537.334 1192.49 556.308 1245 580C1245.62 580.28 1246.24 580.559 1246.88 580.847C1326.79 616.836 1326.79 616.836 1342.01 656.639C1366.23 723.44 1372.79 801.487 1379 872C1379.09 873.018 1379.18 874.036 1379.27 875.084C1385.47 944.795 1389.42 1014.68 1390.65 1084.66C1390.69 1086.6 1390.72 1088.53 1390.76 1090.47C1391.67 1137.52 1389.91 1184.62 1388.26 1231.63C1388.12 1235.45 1387.99 1239.28 1387.86 1243.1C1385.27 1317.38 1385.27 1317.38 1383 1353C1382.89 1354.68 1382.89 1354.68 1382.79 1356.39C1374.48 1486.61 1374.48 1486.61 1346 1516C1344.99 1517.04 1344.99 1517.04 1343.97 1518.1C1335.69 1526.6 1327.41 1534.75 1318 1542C1316.9 1542.89 1315.81 1543.77 1314.71 1544.66C1304.25 1553.12 1293.45 1560.42 1281.44 1566.5C1280.44 1567.01 1280.44 1567.01 1279.42 1567.53C1275.97 1569.22 1272.81 1570.47 1269 1571C1268.78 1565.05 1269.62 1559.57 1270.69 1553.73C1271.06 1551.63 1271.43 1549.54 1271.79 1547.44C1271.99 1546.33 1272.19 1545.23 1272.39 1544.09C1290.46 1441.75 1300.03 1337.74 1305.85 1210.83C1306 1207.04 1306.16 1203.25 1306.32 1199.46C1309.41 1124.46 1309.7 1048.98 1306 974C1305.97 973.342 1305.94 972.684 1305.9 972.006C1300.79 841.182 1300.79 841.182 1273 714C1272.75 713.232 1272.49 712.464 1272.23 711.673C1270.53 706.536 1268.77 701.419 1266.96 696.316C1266.37 694.622 1265.78 692.925 1265.21 691.225C1260.67 677.818 1260.67 677.818 1250 669C1249.11 668.479 1248.22 667.958 1247.3 667.421C1244.26 665.696 1241.18 664.087 1238.06 662.5C1236.9 661.904 1235.74 661.308 1234.54 660.694C1210.46 648.467 1185.43 638.222 1160.14 628.798C1157.91 627.968 1155.69 627.134 1153.46 626.299C1101.1 606.699 1048.1 588.982 994 574.812C993.156 574.592 992.313 574.371 991.444 574.143C982.701 571.865 973.934 569.704 965.125 567.699C964.381 567.527 963.638 567.355 962.872 567.177C957.479 565.943 957.479 565.943 952 566C949.893 568.128 948.204 570.113 946.438 572.5C945.919 573.176 945.401 573.851 944.867 574.547C943.777 575.974 942.694 577.407 941.617 578.845C940.076 580.899 938.511 582.932 936.938 584.961C918.021 607.544 918.021 607.544 910 634C914.592 650.774 926.894 666.168 937 680C937.568 680.782 938.136 681.564 938.721 682.37C948.814 696.256 959.314 709.744 970.167 723.042C973.639 727.303 977.059 731.601 980.438 735.938C985.31 742.19 990.337 748.31 995.406 754.404C995.975 755.089 996.543 755.774 997.129 756.48C997.635 757.088 998.141 757.695 998.662 758.321C999.856 759.819 1000.94 761.406 1002 763C1012.72 735.133 1000.97 696.331 992.062 669.312C991.452 667.451 991.452 667.451 990.83 665.552C987.392 655.435 983.283 645.7 977 637C993.667 631.397 1010.6 629.746 1028.12 629.625C1029.32 629.611 1030.52 629.597 1031.75 629.583C1041.52 629.635 1052.35 630.237 1060 637C1078.68 663.035 1083.54 698.125 1087.75 729.062C1087.86 729.843 1087.96 730.623 1088.07 731.427C1089.46 741.608 1090.46 751.738 1091 762C1092.1 761.838 1093.19 761.677 1094.32 761.51C1110.39 759.28 1133.79 760.192 1147.44 769.812C1152.02 773.634 1155.59 778.197 1159.25 782.875C1160.83 785.082 1160.83 785.082 1163 786C1163.13 784.702 1163.27 783.404 1163.4 782.066C1163.75 778.884 1164.19 775.742 1164.75 772.59C1169.02 748.459 1169.71 722.956 1155.69 701.75C1154.8 700.492 1153.91 699.239 1153 698C1159.72 697.035 1166.4 696.684 1173.19 696.438C1174.86 696.376 1174.86 696.376 1176.57 696.313C1179.72 696.203 1182.86 696.1 1186 696C1187.28 695.956 1188.57 695.912 1189.89 695.867C1204.96 695.597 1221.72 696.052 1233.19 706.969C1249.2 724.909 1247.94 752.627 1246.76 775.137C1244.75 805.534 1237.07 836.681 1226 865C1226.76 865.206 1227.53 865.412 1228.31 865.625C1233.51 867.564 1238.19 870.26 1243 873C1244.53 873.871 1244.53 873.871 1246.1 874.76C1263.04 884.516 1278.88 894.637 1284.46 914.48C1285.88 921.067 1286.15 927.361 1286.13 934.078C1286.13 935.588 1286.13 935.588 1286.14 937.127C1286.14 940.502 1286.13 943.876 1286.12 947.25C1286.12 949.018 1286.12 949.018 1286.12 950.822C1286.03 1008.82 1285.55 1066.77 1281.19 1124.62C1281.08 1126.07 1281.08 1126.07 1280.97 1127.54C1278.38 1162.18 1273.68 1196.59 1268.41 1230.9C1267.26 1238.39 1266.13 1245.88 1265 1253.36C1264.71 1255.31 1264.42 1257.25 1264.12 1259.19C1261.83 1274.33 1259.61 1289.48 1257.44 1304.63C1257.22 1306.15 1257.22 1306.15 1257 1307.69C1255.72 1316.57 1254.45 1325.44 1253.19 1334.32C1249.21 1362.36 1245.12 1390.36 1239.12 1418.06C1238.85 1419.32 1238.85 1419.32 1238.58 1420.6C1229.75 1461.45 1219.46 1502.11 1207 1542C1206.72 1542.89 1206.45 1543.77 1206.16 1544.68C1201.95 1558.18 1197.58 1571.62 1193 1585C1192.61 1586.14 1192.61 1586.14 1192.22 1587.29C1190.6 1591.99 1188.92 1596.66 1187.19 1601.31C1186.79 1602.43 1186.4 1603.55 1185.99 1604.71C1183.17 1612 1179.99 1615.52 1173 1619C1172.35 1619.33 1171.71 1619.66 1171.04 1620.01C1169.08 1620.96 1167.09 1621.8 1165.06 1622.62C1164.28 1622.95 1163.5 1623.27 1162.69 1623.61C1139.9 1632.83 1116.34 1640.34 1093 1648C1093.47 1639.36 1094.57 1631.16 1096.53 1622.74C1096.79 1621.59 1097.05 1620.44 1097.32 1619.25C1100.4 1605.95 1103.9 1592.76 1107.4 1579.57C1109.42 1571.96 1111.41 1564.34 1113.4 1556.72C1113.6 1555.96 1113.8 1555.2 1114 1554.41C1122.85 1520.49 1130.84 1486.41 1138.16 1452.13C1138.6 1450.03 1139.05 1447.94 1139.51 1445.85C1150.88 1392.96 1159.4 1339.45 1168.14 1286.07C1169.06 1280.49 1169.98 1274.92 1170.9 1269.35C1178.17 1225.62 1178.17 1225.62 1184.61 1181.75C1184.72 1180.91 1184.84 1180.06 1184.96 1179.19C1187.24 1162.25 1188.99 1145.3 1189.88 1128.23C1190.64 1114.49 1191.71 1100.79 1192.88 1087.09C1192.96 1086.09 1193.05 1085.08 1193.13 1084.05C1193.75 1076.83 1194.37 1069.6 1195 1062.38C1199.66 1012.17 1199.66 1012.17 1201.38 961.812C1201.38 960.868 1201.38 959.923 1201.38 958.95C1203.17 910.808 1203.17 910.808 1187.1 867.902C1181.06 862.786 1171.07 857 1163 857C1162.79 857.743 1162.59 858.487 1162.38 859.253C1153.37 891.659 1142.21 922.078 1126.15 951.745C1124.89 954.07 1124.89 954.07 1124 957C1124.89 957.485 1125.79 957.969 1126.71 958.469C1134.41 962.713 1141.28 967.281 1148 973C1149.52 974.114 1149.52 974.114 1151.06 975.25C1159.81 982.655 1165.43 993.291 1169 1004C1175.18 1091.36 1150.08 1187.97 1101 1397C1100.57 1398.31 1100.15 1399.62 1099.72 1400.93C1088.98 1433.97 1077.91 1467.13 1064 1499C1063.67 1499.79 1063.34 1500.57 1063.01 1501.38C1060.93 1506.04 1059.31 1508.1 1054.38 1510C1053.78 1510.23 1053.18 1510.46 1052.57 1510.7C1050.39 1511.51 1048.2 1512.26 1046 1513C1045.12 1513.3 1044.23 1513.6 1043.32 1513.91C1029.91 1518.36 1016.32 1522.06 1002.62 1525.5C1001.57 1525.77 1001.57 1525.77 1000.49 1526.04C998.489 1526.54 996.483 1527.04 994.477 1527.53C993.322 1527.82 992.168 1528.1 990.979 1528.39C988 1529 988 1529 984 1529C984.385 1519.11 986.806 1509.78 989.25 1500.25C989.696 1498.49 990.141 1496.73 990.587 1494.96C994.231 1480.64 998.163 1466.41 1002.14 1452.17C1008.74 1428.53 1014.96 1404.79 1021 1381C1021.25 1380 1021.51 1379 1021.77 1377.97C1044.67 1287.6 1062.42 1195.89 1085.31 1059.81C1085.45 1058.96 1085.59 1058.1 1085.74 1057.22C1086.54 1052.3 1087.33 1047.39 1088.12 1042.47C1088.36 1041 1088.6 1039.53 1088.84 1038.06C1090.08 1030.38 1091.21 1022.7 1092.14 1014.98C1092.22 1014.3 1092.3 1013.62 1092.39 1012.91C1093.22 1005.74 1093.38 998.599 1093.38 991.375C1093.37 990.37 1093.37 990.37 1093.37 989.344C1093.34 979.408 1092.92 970.278 1089 961C1088.64 960.143 1088.28 959.286 1087.9 958.402C1083.05 948.558 1075.65 943.561 1066 939C1065.95 939.557 1065.9 940.114 1065.85 940.688C1057.4 1032.11 1030.18 1125.32 975 1293C967.164 1290.51 959.562 1287.51 951.938 1284.44C951.286 1284.18 950.634 1283.91 949.962 1283.64C945.947 1282.03 941.935 1280.41 937.924 1278.78C936.081 1278.03 934.237 1277.29 932.392 1276.54C929.133 1275.23 925.878 1273.9 922.625 1272.56C921.665 1272.17 920.704 1271.79 919.715 1271.39C917.115 1270.31 914.557 1269.17 912 1268C911.25 1267.7 910.5 1267.4 909.728 1267.09C904.876 1264.74 903.296 1262.1 901.523 1257.05C900.774 1254.48 900.062 1251.9 899.375 1249.31C898.964 1247.85 898.55 1246.39 898.133 1244.94C897.218 1241.71 896.323 1238.48 895.441 1235.25C893.95 1229.79 892.4 1224.35 890.848 1218.91C874.993 1163.19 860.252 1107.15 846 1051C845.746 1050 845.746 1050 845.486 1048.98C831.566 994.138 818.12 939.189 805.938 883.938C805.785 883.247 805.633 882.556 805.475 881.844C800.788 860.602 796.341 839.315 792 818C780.733 816.336 780.733 816.336 769.41 815.148C768.67 815.084 767.93 815.02 767.168 814.955C764.8 814.754 762.432 814.563 760.062 814.375C759.242 814.31 758.422 814.244 757.577 814.177C712.645 809.282 712.645 809.282 672 824C668.543 827.351 666.82 830.451 665 835C686.45 835 707.9 835 730 835C724.519 840.481 724.519 840.481 721.992 842.938C720.953 843.958 719.914 844.979 718.875 846C718.35 846.508 717.826 847.016 717.285 847.539C714.307 850.479 711.99 853.268 710 857C710.557 857.219 711.114 857.438 711.688 857.664C729.765 865.176 739.834 880.691 747.1 898.203C750.025 905.475 752.726 912.83 755.25 920.25C755.472 920.897 755.694 921.544 755.922 922.21C757.558 927.18 758.833 932.224 760.089 937.3C760.273 938.041 760.458 938.783 760.648 939.547C761.099 941.364 761.55 943.182 762 945C761.084 945.035 760.168 945.071 759.224 945.107C750.587 945.441 741.951 945.779 733.314 946.122C728.874 946.297 724.434 946.472 719.993 946.643C715.707 946.808 711.422 946.977 707.136 947.149C705.502 947.213 703.867 947.277 702.233 947.339C699.942 947.426 697.651 947.518 695.361 947.611C694.057 947.662 692.754 947.713 691.411 947.766C688.506 947.965 685.83 948.34 683 949C683.743 949.784 684.485 950.567 685.25 951.375C690.343 957.451 693.127 965.809 693.123 973.693C693.125 974.638 693.127 975.583 693.129 976.557C693.126 977.592 693.123 978.627 693.12 979.693C693.122 981.346 693.122 981.346 693.123 983.032C693.125 986.737 693.119 990.442 693.114 994.147C693.113 996.798 693.113 999.449 693.114 1002.1C693.114 1007.81 693.111 1013.53 693.106 1019.24C693.098 1027.5 693.095 1035.76 693.094 1044.02C693.092 1057.43 693.085 1070.83 693.075 1084.23C693.066 1097.25 693.059 1110.27 693.055 1123.29C693.055 1124.1 693.054 1124.91 693.054 1125.75C693.052 1132.09 693.05 1138.43 693.048 1144.77C693.039 1175.84 693.019 1206.92 693 1238C748.77 1238 804.54 1238 862 1238C867.624 1251.5 867.624 1251.5 869.346 1256.33C869.739 1257.43 870.132 1258.53 870.537 1259.66C870.948 1260.82 871.358 1261.98 871.781 1263.17C872.232 1264.43 872.682 1265.69 873.133 1266.95C874.092 1269.63 875.05 1272.31 876.005 1275C878.571 1282.19 881.15 1289.39 883.73 1296.58C883.993 1297.31 884.256 1298.05 884.526 1298.8C889.869 1313.69 895.323 1328.54 900.812 1343.38C907.668 1361.91 914.434 1380.47 921.101 1399.07C927.036 1415.62 933.087 1432.13 939.188 1448.62C946.739 1469.04 954.161 1489.5 961.5 1510C968.966 1530.85 976.517 1551.66 984.188 1572.44C985.062 1574.81 985.937 1577.18 986.811 1579.55C990.216 1588.78 993.625 1598.01 997.07 1607.22C998.248 1610.37 999.418 1613.53 1000.59 1616.69C1001.35 1618.74 1002.12 1620.78 1002.89 1622.82C1003.33 1624 1003.76 1625.18 1004.21 1626.39C1004.59 1627.39 1004.96 1628.39 1005.35 1629.42C1006.05 1632.2 1006.29 1633.44 1005 1636C1002.9 1637.47 1002.9 1637.47 1000.09 1638.85C999.053 1639.36 998.012 1639.88 996.939 1640.41C995.237 1641.23 995.237 1641.23 993.5 1642.06C992.329 1642.63 991.158 1643.21 989.951 1643.79C931.085 1672.38 854.02 1706.02 788 1686C787.02 1685.71 786.04 1685.41 785.03 1685.11C760.082 1677.47 736.022 1667.15 712.066 1656.89C705.26 1653.97 698.451 1651.06 691.641 1648.15C688.99 1647.02 686.341 1645.89 683.692 1644.75C682.033 1644.04 680.374 1643.33 678.715 1642.62C677.969 1642.3 677.223 1641.98 676.454 1641.65C664.988 1636.77 656.986 1634.49 644.93 1638.93C644.061 1639.24 643.193 1639.55 642.299 1639.87C633.058 1643.25 624.01 1647.08 614.974 1650.96C610.056 1653.08 605.127 1655.17 600.199 1657.26C599.229 1657.67 598.259 1658.08 597.26 1658.51C568.541 1670.69 539.43 1682.8 509 1690C508.205 1690.19 507.41 1690.39 506.591 1690.58C443.46 1704.71 360.957 1661.87 306 1635C308.191 1627.3 310.817 1619.79 313.586 1612.28C314.275 1610.4 314.964 1608.52 315.652 1606.64C316.385 1604.64 317.119 1602.64 317.854 1600.64C320.199 1594.26 322.535 1587.88 324.871 1581.49C325.407 1580.03 325.942 1578.57 326.478 1577.1C331.468 1563.48 336.412 1549.83 341.34 1536.18C349.033 1514.88 356.819 1493.61 364.675 1472.36C371.788 1453.11 378.766 1433.82 385.688 1414.5C392.781 1394.7 399.928 1374.93 407.205 1355.2C411.599 1343.28 415.968 1331.36 420.289 1319.42C420.516 1318.79 420.743 1318.16 420.976 1317.52C423.394 1310.84 425.808 1304.15 428.219 1297.47C435.39 1277.61 442.701 1257.81 450 1238C506.1 1238 562.2 1238 620 1238C619.939 1188.25 619.939 1188.25 619.84 1138.5C619.824 1131.8 619.808 1125.09 619.792 1118.38C619.791 1117.54 619.789 1116.7 619.787 1115.84C619.756 1102.27 619.739 1088.7 619.727 1075.13C619.714 1061.2 619.687 1047.28 619.645 1033.35C619.62 1024.76 619.607 1016.17 619.609 1007.57C619.609 1001.68 619.594 995.787 619.568 989.894C619.553 986.495 619.545 983.096 619.554 979.696C619.561 976.007 619.543 972.319 619.519 968.63C619.527 967.56 619.535 966.49 619.543 965.387C619.467 958.821 618.473 954.611 615 949C610.773 945.134 605.99 945.564 600.555 945.602C599.63 945.599 598.706 945.596 597.753 945.593C595.791 945.591 593.829 945.596 591.868 945.609C588.933 945.625 586.001 945.609 583.066 945.59C564.734 945.569 540.506 945.675 526.551 959.352C526.039 959.896 525.527 960.44 525 961C524.002 962.002 523.002 963.002 522 964C511.268 936.65 500.833 907.848 500.812 878.125C500.8 877.196 500.788 876.266 500.775 875.309C500.749 862.861 503.086 850.191 511.895 840.875C537.211 818.33 578.779 815.292 611 816C611.121 814.79 611.242 813.579 611.367 812.332C613.074 798.81 622.83 785.589 633 777C662.877 754.82 702.138 753.77 737.812 753.75C739.66 753.748 739.66 753.748 741.544 753.747C766.458 753.761 791.173 755.001 816 757C817.587 757.127 817.587 757.127 819.207 757.256C830.586 758.166 841.962 759.113 853.332 760.133C854.589 760.242 854.589 760.242 855.872 760.353C859.078 760.648 861.934 760.978 865 762C864.921 763.309 864.921 763.309 864.84 764.645C864.418 777.606 866.911 789.673 869.562 802.312C870.058 804.724 870.552 807.135 871.046 809.546C885.479 879.499 902.295 948.951 922.428 1028.74C923.025 1031.1 923.622 1033.46 924.218 1035.83C927.015 1046.91 929.814 1057.98 932.617 1069.06C933.037 1070.72 933.456 1072.38 933.876 1074.04C935.069 1078.75 936.264 1083.47 937.46 1088.19C937.822 1089.62 938.184 1091.04 938.545 1092.47C940.957 1102 943.447 1111.51 946 1121C948.989 1110.1 951.663 1099.15 954.195 1088.14C954.589 1086.43 954.982 1084.73 955.375 1083.03C956.631 1077.58 957.879 1072.13 959.125 1066.69C959.337 1065.76 959.55 1064.83 959.768 1063.88C990.027 959.199 990.027 959.199 971.753 857.446C967.212 850.366 962.159 843.638 957 837C956.37 836.189 956.37 836.189 955.727 835.361C950.043 828.054 944.266 820.823 938.477 813.6C921.625 792.559 905.211 771.168 888.883 749.719C885.267 744.971 881.644 740.227 878 735.5C877.233 734.502 876.466 733.505 875.676 732.477C874.199 730.556 872.719 728.637 871.236 726.722C862.254 715.115 853.606 703.373 845.457 691.167C844.075 689.111 842.67 687.075 841.254 685.043C830.716 669.809 821.128 654.538 824.426 635.546C830.171 606.907 843.555 580.942 860 557C860.534 556.216 861.067 555.431 861.617 554.623C874.569 535.618 888.683 517.495 903.702 500.076C906.241 497.127 908.674 494.137 911.016 491.027C911.524 490.376 912.033 489.725 912.557 489.054C913.536 487.8 914.49 486.525 915.413 485.229C919.777 479.754 923.56 480.624 930 482ZM1013 778C1016.41 783.238 1019.94 788.313 1023.74 793.273C1039.02 813.338 1050.7 835.53 1062 858C1062.49 858.969 1062.98 859.937 1063.48 860.936C1066.01 865.948 1068.51 870.968 1071 876C1074.28 872.718 1074.99 868.313 1076.31 863.938C1076.62 862.925 1076.93 861.912 1077.24 860.869C1084.41 836.545 1093.32 802.116 1081.19 778.062C1078.14 773.794 1075.09 770.697 1070 769C1051.3 767.149 1030.46 771.474 1013 778ZM576.562 874.184C572.258 879.188 572.609 884.749 573 891C573.99 895.62 574.98 900.24 576 905C617.25 905 658.5 905 701 905C699.722 892.224 696.354 883.079 686.328 874.668C673.997 865.834 658.691 863.85 643.938 863.832C642.513 863.827 642.513 863.827 641.06 863.822C639.056 863.817 637.053 863.815 635.049 863.815C632.037 863.813 629.024 863.794 626.012 863.775C599.428 862.968 599.428 862.968 576.562 874.184ZM549 1315C549.836 1320.01 551.048 1324.39 552.746 1329.13C553.028 1329.93 553.311 1330.73 553.602 1331.56C554.218 1333.3 554.836 1335.05 555.456 1336.8C557.168 1341.62 558.863 1346.45 560.559 1351.29C560.919 1352.31 561.279 1353.34 561.65 1354.39C565.855 1366.4 569.926 1378.45 574 1390.5C579.738 1407.46 585.549 1424.39 591.474 1441.29C596.571 1455.83 601.556 1470.41 606.5 1485C612.054 1501.39 617.682 1517.76 623.409 1534.09C629.418 1551.24 635.279 1568.44 641.104 1585.65C645.328 1598.13 649.622 1610.58 654 1623C656.199 1620.8 656.707 1619.43 657.717 1616.53C658.047 1615.59 658.376 1614.66 658.715 1613.69C659.247 1612.15 659.247 1612.15 659.789 1610.57C660.164 1609.5 660.54 1608.43 660.926 1607.32C661.738 1605 662.548 1602.67 663.355 1600.35C665.071 1595.4 666.799 1590.46 668.526 1585.52C669.408 1583 670.29 1580.48 671.171 1577.95C675.112 1566.66 679.109 1555.39 683.125 1544.12C684.439 1540.44 685.753 1536.74 687.066 1533.05C687.391 1532.14 687.715 1531.23 688.049 1530.29C691.731 1519.95 695.398 1509.6 699.062 1499.25C699.405 1498.28 699.748 1497.31 700.102 1496.32C706.57 1478.04 713.035 1459.77 719.5 1441.5C734.098 1400.24 734.098 1400.24 738.904 1386.67C739.588 1384.74 740.272 1382.81 740.956 1380.87C744.826 1369.94 748.707 1359.01 752.602 1348.08C753.357 1345.96 754.112 1343.84 754.867 1341.72C756.302 1337.69 757.739 1333.67 759.177 1329.64C759.818 1327.85 760.458 1326.05 761.098 1324.25C761.394 1323.43 761.69 1322.6 761.994 1321.75C763.385 1318.45 763.385 1318.45 764 1315C740.57 1315 717.14 1315 693 1315C693 1346.68 693 1378.36 693 1411C683.327 1408.32 673.654 1405.64 663.688 1402.88C660.655 1402.04 657.623 1401.21 654.499 1400.35C652.065 1399.67 649.632 1398.99 647.199 1398.3C645.96 1397.97 644.721 1397.63 643.444 1397.29C635.768 1395.11 628.65 1392.5 622 1388C620.544 1385.09 620.835 1382.51 620.795 1379.26C620.785 1378.55 620.775 1377.85 620.764 1377.12C620.733 1374.84 620.708 1372.56 620.684 1370.27C620.665 1368.87 620.646 1367.46 620.627 1366.05C620.559 1360.83 620.499 1355.6 620.438 1350.38C620.293 1338.7 620.149 1327.03 620 1315C596.57 1315 573.14 1315 549 1315ZM488 1355C483.041 1369.56 478.083 1384.13 473.127 1398.69C472.398 1400.83 471.669 1402.97 470.94 1405.12C462.499 1429.92 454.075 1454.72 445.675 1479.54C439.344 1498.24 433.01 1516.94 426.625 1535.62C426.082 1537.22 425.538 1538.81 424.995 1540.4C422.302 1548.28 419.601 1556.16 416.889 1564.04C415.475 1568.15 414.064 1572.27 412.654 1576.38C411.973 1578.36 411.291 1580.34 410.607 1582.32C409.664 1585.05 408.726 1587.79 407.789 1590.52C407.364 1591.75 407.364 1591.75 406.93 1593C405.869 1596.11 405 1598.69 405 1602C413.548 1603.58 422.1 1604.6 430.753 1605.38C432.8 1605.56 434.846 1605.75 436.893 1605.94C440.927 1606.32 444.963 1606.66 449 1607C450.178 1607.1 451.355 1607.2 452.569 1607.3C463.81 1608.16 475.043 1608.24 486.312 1608.25C487.339 1608.25 488.366 1608.25 489.423 1608.26C508.112 1608.26 526.438 1607.09 545 1605C546.992 1604.79 548.984 1604.59 550.977 1604.39C558.597 1603.74 558.597 1603.74 566 1602C564.512 1594.69 562.42 1587.69 560.133 1580.59C559.54 1578.73 558.947 1576.87 558.354 1575.02C557.72 1573.03 557.084 1571.05 556.448 1569.06C554.397 1562.67 552.36 1556.27 550.321 1549.87C549.85 1548.39 549.378 1546.91 548.906 1545.43C544.165 1530.56 539.499 1515.66 534.855 1500.75C526.134 1472.76 517.323 1444.8 508.483 1416.84C507.765 1414.57 507.047 1412.3 506.328 1410.03C505.86 1408.55 505.391 1407.06 504.922 1405.58C499.593 1388.73 494.294 1371.87 489 1355C488.67 1355 488.34 1355 488 1355ZM823 1356C810.728 1394.93 798.463 1433.86 786.231 1472.8C785.325 1475.69 784.418 1478.58 783.512 1481.46C783.288 1482.17 783.064 1482.89 782.833 1483.62C779.503 1494.22 776.167 1504.82 772.827 1515.42C771.348 1520.12 769.87 1524.81 768.393 1529.51C767.228 1533.21 766.063 1536.91 764.897 1540.6C758.454 1561.03 752.17 1581.49 746 1602C753.328 1603.16 760.645 1604.28 768.023 1605.07C768.831 1605.16 769.639 1605.24 770.471 1605.33C808.329 1609.27 846.005 1609.22 883.855 1605.22C886.201 1604.98 888.548 1604.75 890.896 1604.52C892.528 1604.36 894.161 1604.19 895.793 1604.02C896.554 1603.95 897.314 1603.88 898.098 1603.8C901.846 1603.41 904.704 1602.8 908 1601C898.941 1573.72 889.857 1546.45 880.538 1519.26C880.252 1518.42 879.966 1517.59 879.672 1516.73C879.383 1515.89 879.095 1515.05 878.797 1514.18C874.777 1502.44 870.797 1490.69 866.812 1478.94C866.006 1476.56 865.199 1474.18 864.392 1471.8C861.096 1462.08 857.801 1452.36 854.506 1442.64C852.046 1435.39 849.586 1428.13 847.125 1420.88C846.533 1419.13 846.533 1419.13 845.929 1417.35C838.988 1396.89 832.011 1376.44 825 1356C824.34 1356 823.68 1356 823 1356Z" fill="#0746A3"/>
<path d="M774 468C773.536 469.581 773.069 471.161 772.601 472.741C772.342 473.621 772.082 474.501 771.814 475.408C760.711 510.74 735.536 543.958 712 572C711.215 572.971 710.43 573.941 709.621 574.941C702.863 583.183 695.45 590.765 687.937 598.312C687.431 598.824 686.924 599.336 686.402 599.863C679.61 606.71 672.609 613.051 665 619C664.342 619.517 663.684 620.034 663.006 620.567C623.909 650.847 576.59 662.042 529.465 673.578C500.295 680.726 471.407 688.186 443 698C442.208 698.273 441.415 698.546 440.599 698.827C421.124 705.554 401.882 712.736 383 721C382.157 721.365 381.314 721.73 380.445 722.106C347.618 736.359 315.82 753.28 288 776C287.427 776.466 286.854 776.932 286.264 777.413C254.986 803.013 237.461 838.114 233.185 878.214C232.757 884.65 232.9 891.115 232.937 897.562C232.942 899.063 232.947 900.564 232.951 902.064C232.962 905.71 232.979 909.355 233 913C233.41 912.495 233.82 911.989 234.242 911.469C234.781 910.819 235.32 910.169 235.875 909.5C236.409 908.85 236.942 908.201 237.492 907.531C237.99 907.026 238.487 906.521 239 906C239.66 906 240.32 906 241 906C241 905.34 241 904.68 241 904C242.258 902.695 242.258 902.695 244.125 901.125C244.86 900.502 245.594 899.88 246.351 899.238C247.662 898.13 247.662 898.13 249 897C250.03 896.099 251.059 895.197 252.086 894.293C260.725 886.725 269.693 879.726 279 873C279.782 872.435 280.564 871.87 281.369 871.288C292.934 862.972 304.731 855.232 317 848C317.745 847.556 318.491 847.112 319.259 846.654C392.592 803 392.592 803 410 803C409.35 810.36 407.886 817.364 406.25 824.562C403.966 834.916 402.034 845.266 400.437 855.75C400.336 856.414 400.235 857.077 400.13 857.761C399.409 862.506 398.702 867.252 398 872C385.451 956.793 385.451 956.793 363 986C362.364 986.834 361.729 987.668 361.074 988.527C359.093 991.058 357.061 993.534 355 996C354.574 996.511 354.148 997.022 353.708 997.549C346.817 1005.78 339.629 1013.7 332.266 1021.52C329.485 1024.47 326.761 1027.47 324.062 1030.5C321.039 1033.89 317.914 1037.11 314.676 1040.29C312.889 1042.11 311.225 1044 309.562 1045.94C307.144 1048.75 304.641 1051.4 302 1054C298.894 1057.06 296.012 1060.24 293.172 1063.55C290.823 1066.2 288.405 1068.78 285.974 1071.35C280.489 1077.17 275.177 1083.03 270.195 1089.29C268.212 1091.74 266.156 1094.11 264.072 1096.48C256.852 1104.75 250.857 1113.73 245 1123C244.612 1123.6 244.224 1124.21 243.824 1124.83C222.2 1158.79 215.934 1203.73 222 1243C222.33 1243.66 222.66 1244.32 223 1245C223.594 1244.15 224.188 1243.3 224.801 1242.43C239.89 1221.02 256.707 1201.25 275.187 1182.69C275.936 1181.93 276.684 1181.18 277.455 1180.41C282.142 1175.73 286.977 1171.31 292 1167C293.191 1165.95 294.381 1164.91 295.57 1163.86C302.717 1157.59 309.979 1151.55 317.492 1145.73C320.459 1143.43 323.383 1141.09 326.3 1138.72C336.001 1130.88 345.97 1123.41 356 1116C356.847 1115.37 357.694 1114.74 358.567 1114.1C361.019 1112.29 363.477 1110.49 365.937 1108.69C366.676 1108.14 367.415 1107.6 368.177 1107.04C368.87 1106.53 369.563 1106.03 370.277 1105.51C370.878 1105.07 371.478 1104.63 372.097 1104.18C374.307 1102.81 376.565 1101.91 379 1101C379.242 1114 378.528 1126.8 377.437 1139.75C377.352 1140.79 377.266 1141.82 377.178 1142.89C372.966 1193.29 367.22 1243.89 357.875 1293.62C357.658 1294.8 357.44 1295.98 357.216 1297.19C355.026 1308.26 351.512 1319.06 346.125 1329C345.756 1329.69 345.387 1330.38 345.007 1331.08C336.809 1345.92 326.58 1359.78 316 1373C315.317 1373.86 314.634 1374.73 313.93 1375.62C311.966 1378.09 309.987 1380.55 308 1383C307.315 1383.85 306.631 1384.7 305.926 1385.57C297.558 1395.88 288.925 1405.95 280.004 1415.78C278.187 1417.79 276.4 1419.83 274.625 1421.87C271.172 1425.84 267.611 1429.71 264.049 1433.58C260.919 1436.98 257.836 1440.42 254.84 1443.94C253.389 1445.56 251.865 1447.12 250.316 1448.65C249.851 1449.12 249.386 1449.59 248.906 1450.08C247.567 1451.43 246.206 1452.76 244.844 1454.09C242.393 1457.96 243.086 1460.73 244 1465C244.929 1468.23 246.058 1471.37 247.219 1474.52C247.548 1475.44 247.878 1476.36 248.218 1477.31C248.932 1479.29 249.649 1481.28 250.369 1483.26C252.318 1488.63 254.238 1494.01 256.16 1499.39C256.559 1500.51 256.959 1501.62 257.37 1502.77C264.188 1521.88 270.625 1541.12 277.102 1560.34C278.185 1563.55 279.274 1566.76 280.363 1569.97C284.311 1581.61 288.192 1593.26 291.625 1605.06C291.873 1605.91 292.122 1606.75 292.378 1607.63C292.596 1608.4 292.814 1609.17 293.039 1609.97C293.227 1610.64 293.414 1611.3 293.608 1611.98C294.069 1614.35 294.064 1616.59 294 1619C281.923 1614.93 270.222 1610.27 258.562 1605.12C257.728 1604.76 256.894 1604.39 256.035 1604.02C223.415 1589.71 190.961 1574.65 160 1557C158.666 1556.24 158.666 1556.24 157.305 1555.47C109.25 1527.94 72.9923 1493.7 57.5155 1439.13C55.2119 1430.4 53.5667 1421.62 52.1093 1412.71C51.982 1411.95 51.8547 1411.18 51.7236 1410.38C48.7092 1392.08 46.4191 1373.69 44.25 1355.27C43.932 1352.58 43.6108 1349.88 43.2888 1347.19C32.698 1258.47 32.698 1258.47 32.9374 1225.5C32.9419 1224.28 32.9464 1223.07 32.9511 1221.82C32.9626 1218.88 32.9789 1215.94 32.9999 1213C33.6599 1212.67 34.3199 1212.34 34.9999 1212C50.4871 1221.75 65.0174 1233.21 78.9999 1245C80.0636 1245.89 81.1274 1246.78 82.1913 1247.67C88.1008 1252.62 93.9252 1257.65 99.6288 1262.85C101.167 1264.24 102.715 1265.63 104.277 1267C115.208 1276.62 125.792 1286.83 134.797 1298.29C137.402 1301.49 140.178 1304.49 143 1307.5C148.267 1313.13 153.178 1318.98 158 1325C159.395 1326.69 160.791 1328.38 162.187 1330.06C173.091 1343.41 183.443 1357.17 193.596 1371.09C195.05 1373.07 196.522 1375.04 198 1377C197.233 1372.94 196.461 1368.87 195.687 1364.81C195.46 1363.61 195.233 1362.41 194.999 1361.18C193.889 1355.37 192.713 1349.64 191.187 1343.94C185.755 1321 194.693 1298.13 204.152 1277.54C206.095 1271.71 204.708 1267.66 202.035 1262.31C201.723 1261.68 201.412 1261.06 201.091 1260.41C200.428 1259.08 199.76 1257.76 199.086 1256.44C198.082 1254.47 197.101 1252.5 196.123 1250.51C190.445 1239.16 183.712 1228.8 175.375 1219.19C174.913 1218.65 174.452 1218.12 173.976 1217.57C172.656 1216.04 171.328 1214.52 170 1213C169.314 1212.2 168.628 1211.4 167.922 1210.58C164.747 1206.9 161.482 1203.39 158 1200C157.408 1199.4 156.817 1198.8 156.207 1198.18C155.269 1197.22 155.269 1197.22 154.312 1196.25C153.731 1195.66 153.15 1195.06 152.551 1194.45C151.045 1192.9 151.045 1192.9 149 1192C149 1191.34 149 1190.68 149 1190C148.34 1190 147.68 1190 147 1190C147 1189.34 147 1188.68 147 1188C146.466 1187.79 145.933 1187.59 145.383 1187.38C142.001 1185.42 139.57 1182.74 136.875 1179.94C133.304 1176 133.304 1176 129 1173C129 1172.34 129 1171.68 129 1171C128.428 1170.76 127.855 1170.51 127.266 1170.26C124.596 1168.77 122.862 1167.02 120.75 1164.81C118.017 1161.96 115.216 1159.29 112.226 1156.72C107.809 1152.9 103.717 1148.79 99.6249 1144.62C98.2236 1143.2 96.82 1141.77 95.414 1140.35C94.8051 1139.73 94.1961 1139.11 93.5688 1138.47C92.0487 1136.91 92.0487 1136.91 89.9999 1136C89.9999 1135.34 89.9999 1134.68 89.9999 1134C89.3399 1134 88.6799 1134 87.9999 1134C86.5194 1132.5 86.5194 1132.5 84.8124 1130.44C82.5126 1127.73 80.1894 1125.15 77.6249 1122.69C40.2312 1085.63 35.1003 1029.98 34.81 979.891C34.8052 978.477 34.8008 977.063 34.7968 975.648C34.7899 974.118 34.783 972.587 34.7761 971.056C34.7571 966.163 34.7527 961.269 34.7499 956.375C34.7489 955.541 34.7479 954.707 34.7468 953.848C34.7117 923.617 35.6463 893.57 37.8311 863.408C37.9862 861.196 38.1226 858.983 38.2504 856.769C38.3237 855.596 38.397 854.423 38.4726 853.215C38.5281 852.256 38.5836 851.296 38.6408 850.308C38.9999 848 38.9999 848 40.9999 845C42.1909 846.163 43.3774 847.331 44.5624 848.5C45.2237 849.15 45.885 849.799 46.5663 850.469C48.5512 852.533 50.4397 854.628 52.3163 856.789C55.9014 860.917 59.6181 864.904 63.3749 868.875C68.2733 874.076 73.1291 879.306 77.8866 884.637C80.2821 887.315 82.7027 889.97 85.1249 892.625C88.5379 896.374 91.9071 900.155 95.2304 903.984C97.2511 906.286 99.313 908.548 101.375 910.812C104.485 914.254 107.465 917.763 110.375 921.375C113.619 925.388 116.988 929.224 120.5 933C124.677 937.5 128.648 942.118 132.496 946.902C134.407 949.266 136.336 951.609 138.285 953.941C162.19 982.583 180.536 1014.15 198 1047C197.979 1045.91 197.958 1044.83 197.936 1043.71C197.388 1012.43 198.421 983.066 212.25 954.246C215.424 947.195 213.772 940.964 211.812 933.812C211.584 932.971 211.355 932.129 211.12 931.262C202.54 900.52 181.896 876.734 159.812 854.625C159.293 854.104 158.774 853.584 158.238 853.048C156.752 851.562 155.262 850.081 153.769 848.601C152.464 847.307 152.464 847.307 151.132 845.987C149.162 843.963 149.162 843.963 147 843C147 842.34 147 841.68 147 841C146.111 840.6 146.111 840.6 145.205 840.193C142.955 838.975 141.507 837.737 139.723 835.918C139.126 835.315 138.53 834.713 137.916 834.092C136.998 833.149 136.998 833.149 136.062 832.187C135.455 831.571 134.847 830.954 134.221 830.318C133.026 829.105 131.832 827.89 130.641 826.673C128.443 824.433 126.223 822.215 124 820C123.181 819.179 122.363 818.358 121.519 817.512C119.819 815.816 118.108 814.132 116.387 812.457C110.438 806.628 104.978 800.7 99.9999 794C99.2935 793.06 98.5871 792.12 97.8593 791.152C79.7984 766.176 69.2124 736.32 72.6249 705.25C75.4164 688.057 82.5865 673.074 93.9999 660C94.7115 659.167 95.423 658.334 96.1562 657.476C125.71 623.656 172.707 601.627 214 586C214.66 586 215.32 586 216 586C218.871 594.832 221.201 603.653 223.062 612.75C223.319 613.999 223.576 615.248 223.84 616.535C226.247 628.614 227.89 640.737 229 653C229.141 654.487 229.141 654.487 229.286 656.004C230.253 667.507 230.242 679.026 230.25 690.562C230.251 691.675 230.253 692.788 230.254 693.935C230.248 716.15 229.017 738.172 227.219 760.305C226.706 766.625 226.211 772.947 225.716 779.268C225.459 782.549 225.191 785.828 224.915 789.106C224.146 798.433 223.838 807.64 224 817C258.775 784.978 268.666 735.054 277.226 690.509C278.288 684.995 279.372 679.485 280.452 673.975C280.717 672.619 280.982 671.263 281.247 669.907C283.156 660.146 285.139 650.403 287.215 640.676C287.452 639.56 287.689 638.443 287.933 637.293C293.596 611.015 302.177 585.647 320 565C320.634 564.174 321.268 563.347 321.922 562.496C337.803 543.42 364.889 531.771 387.623 523.267C391.011 521.996 394.39 520.705 397.77 519.412C459.104 495.954 459.104 495.954 486 493C484.659 502.69 482.276 511.983 479.625 521.375C479.409 522.146 479.193 522.917 478.97 523.712C451.55 621.382 451.55 621.382 423 659C422.352 659.874 421.703 660.748 421.035 661.648C413.306 671.597 403.979 680.199 395 689C401.209 687.769 407.074 686.094 413 683.875C413.82 683.568 414.639 683.262 415.484 682.946C435.946 675.151 456.788 664.531 472.266 648.68C474 647 474 647 476 647C476 646.34 476 645.68 476 645C477.408 643.832 478.819 642.668 480.242 641.519C490.927 632.283 499.288 619.189 507.379 607.695C509.147 605.187 510.948 602.706 512.777 600.242C527.503 580.331 541.291 559.49 553.386 537.874C559.369 527.262 566.529 517.755 575 509C575.748 508.226 576.495 507.453 577.266 506.656C621.889 463.51 715.98 467.295 774 468Z" fill="#0746A3"/>
<path d="M1585 535C1743.73 535 1902.46 535 2066 535C2066 544.57 2066 554.14 2066 564C2064.09 565.912 2060.67 565.405 2058.12 565.578C2056.64 565.684 2055.16 565.792 2053.69 565.9C2052.9 565.956 2052.12 566.013 2051.31 566.071C1987.79 570.438 1987.79 570.438 1933.5 600.062C1915.82 622.687 1912.68 654.716 1910.91 682.315C1910.86 682.975 1910.82 683.636 1910.78 684.317C1909.83 699.325 1909.71 714.323 1909.74 729.355C1909.75 733.265 1909.74 737.174 1909.74 741.084C1909.73 747.9 1909.73 754.717 1909.73 761.534C1909.74 771.672 1909.74 781.81 1909.73 791.948C1909.72 810.065 1909.72 828.182 1909.73 846.299C1909.73 862.155 1909.73 878.011 1909.73 893.867C1909.73 894.922 1909.73 895.977 1909.73 897.064C1909.73 901.348 1909.73 905.632 1909.73 909.917C1909.72 950.038 1909.73 990.16 1909.74 1030.28C1909.75 1065.86 1909.75 1101.44 1909.74 1137.02C1909.73 1177.07 1909.72 1217.12 1909.73 1257.17C1909.73 1261.45 1909.73 1265.72 1909.73 1270C1909.73 1271.05 1909.73 1272.11 1909.73 1273.19C1909.74 1289.03 1909.73 1304.87 1909.73 1320.7C1909.72 1338.73 1909.72 1356.75 1909.73 1374.78C1909.74 1384.84 1909.74 1394.91 1909.73 1404.97C1909.73 1411.72 1909.73 1418.47 1909.74 1425.22C1909.74 1429.05 1909.75 1432.87 1909.74 1436.7C1909.71 1451.9 1909.96 1467.03 1910.9 1482.2C1910.98 1483.48 1911.06 1484.77 1911.14 1486.1C1912.92 1512.55 1916.46 1546.04 1936.44 1565.62C1967.38 1590.86 2018.07 1592.2 2056.28 1594.41C2057.41 1594.47 2058.55 1594.54 2059.72 1594.61C2060.72 1594.66 2061.72 1594.71 2062.75 1594.77C2065 1595 2065 1595 2066 1596C2066 1606.56 2066 1617.12 2066 1628C1907.27 1628 1748.54 1628 1585 1628C1585 1617.44 1585 1606.88 1585 1596C1588.06 1594.47 1591.34 1594.6 1594.71 1594.39C1596.33 1594.27 1597.95 1594.16 1599.57 1594.05C1600.43 1593.99 1601.28 1593.93 1602.16 1593.87C1663.12 1591.18 1663.12 1591.18 1716.39 1564.92C1739.23 1537.64 1741.19 1495.88 1741.13 1461.91C1741.13 1460.56 1741.13 1459.21 1741.13 1457.85C1741.14 1454.16 1741.14 1450.47 1741.13 1446.78C1741.13 1442.76 1741.14 1438.73 1741.14 1434.7C1741.15 1427.66 1741.15 1420.61 1741.15 1413.56C1741.14 1403.08 1741.15 1392.6 1741.15 1382.12C1741.16 1362.32 1741.17 1342.51 1741.17 1322.7C1741.17 1307.4 1741.17 1292.09 1741.17 1276.79C1741.17 1272.38 1741.17 1267.98 1741.18 1263.57C1741.18 1262.47 1741.18 1261.37 1741.18 1260.25C1741.18 1229.43 1741.19 1198.6 1741.19 1167.78C1741.19 1166.62 1741.19 1165.46 1741.19 1164.26C1741.19 1158.38 1741.19 1152.49 1741.19 1146.6C1741.19 1145.44 1741.19 1144.27 1741.19 1143.06C1741.19 1140.7 1741.19 1138.33 1741.19 1135.97C1741.18 1099.2 1741.19 1062.43 1741.21 1025.66C1741.22 984.32 1741.23 942.983 1741.23 901.646C1741.23 897.235 1741.23 892.824 1741.23 888.412C1741.23 887.326 1741.23 886.24 1741.23 885.121C1741.23 867.673 1741.23 850.224 1741.24 832.776C1741.25 815.227 1741.25 797.678 1741.25 780.13C1741.24 769.717 1741.24 759.304 1741.25 748.891C1741.26 741.919 1741.26 734.948 1741.25 727.977C1741.25 724.016 1741.25 720.054 1741.26 716.092C1741.3 694.497 1740.95 672.889 1737.19 651.562C1737.02 650.577 1736.85 649.592 1736.67 648.577C1733.61 631.644 1729 612.872 1717 600C1716.41 599.337 1715.83 598.675 1715.22 597.992C1688.22 570.719 1633.5 568.497 1597.92 565.951C1596.75 565.865 1596.75 565.865 1595.55 565.777C1594.06 565.67 1592.58 565.567 1591.09 565.469C1586.11 565.111 1586.11 565.111 1585 564C1585 554.43 1585 544.86 1585 535Z" fill="#0746A3"/>
</svg>
